<svg width="25" height="25" viewBox="0 0 25 25" fill="none" xmlns="http://www.w3.org/2000/svg">
<path d="M12.5 24.006C18.5751 24.006 23.5 19.0225 23.5 12.8751C23.5 6.72764 18.5751 1.74414 12.5 1.74414C6.42487 1.74414 1.5 6.72764 1.5 12.8751C1.5 19.0225 6.42487 24.006 12.5 24.006Z" stroke="#555555" stroke-width="2"/>
<path d="M12.1923 17.9346C14.2315 17.9346 16.5 16.2735 16.5 14.2243C16.5 11.3261 15.4186 10.6012 12.749 7.46597C12.6715 7.37497 12.5069 7.48284 12.5526 7.59371C13.4083 9.66893 13.2882 11.2001 12.1923 11.7508C11.0392 12.3301 10.2462 11.1002 9.81336 10.6036C9.77179 10.5559 9.69813 10.5631 9.66403 10.6165C8.73497 12.0715 8.5 13.6201 8.5 14.2243C8.5 16.2735 10.1531 17.9346 12.1923 17.9346Z" stroke="#555555" stroke-width="2"/>
</svg>
