<?xml version="1.0" encoding="utf-8"?>
<!-- Generator: Adobe Illustrator 27.8.1, SVG Export Plug-In . SVG Version: 6.00 Build 0)  -->
<svg version="1.1" id="레이어_1" xmlns="http://www.w3.org/2000/svg" xmlns:xlink="http://www.w3.org/1999/xlink" x="0px"
	 y="0px" viewBox="0 0 283.46 122.66" style="enable-background:new 0 0 283.46 122.66;" xml:space="preserve">
<style type="text/css">
	.st0{fill:#FFFFFF;stroke:#000000;stroke-miterlimit:10;}
	.st1{fill:#DA5411;}
	.st2{fill:#DE4711;}
</style>
<rect x="-126.52" y="-393.7" class="st0" width="133.6" height="133.6"/>
<g>
	<path class="st1" d="M160.64-282.48c0.69-1.69,2.63-2.52,4.32-1.81c0.55,0.23,1.07,0.43,1.58,0.61c1.14,0.45,2.27,0.74,3.39,0.87
		c7.14,0.83,12.52-0.21,16.13-3.13c3.4-2.69,5.48-7.32,6.24-13.91l1.3-11.18c0.39-3.37-3.93-5.08-5.95-2.36l-9.08,12.23
		c-1.91,2.36-3.61,3.96-5.09,4.79c-1.88,1.04-4.1,1.41-6.64,1.12c-2.86-0.33-5.04-1.31-6.55-2.93c-1.57-1.69-2.19-3.94-1.86-6.73
		l5.59-48.1c0.21-1.82,1.85-3.12,3.67-2.91l0.13,0.02c1.82,0.21,3.12,1.85,2.91,3.67l-5.6,48.19c-0.1,0.87,0.04,1.55,0.42,2.03
		c0.45,0.49,1.26,0.81,2.44,0.94c0.68,0.08,1.33-0.1,1.95-0.53c0.48-0.43,1.13-1.14,1.97-2.12c0.05-0.06,0.1-0.13,0.15-0.19
		l24.04-32.48c0.35-0.47,0.81-0.84,1.35-1.07l1.18-0.51c2.34-1.01,4.89,0.89,4.6,3.42l-4.25,36.6c-0.85,7.33-3.56,12.8-8.14,16.43
		c-5.2,4.12-12.49,5.63-21.86,4.54c-2.36-0.27-4.27-0.59-5.74-0.95c-0.12-0.03-0.23-0.06-0.35-0.09
		C160.93-278.52,159.88-280.63,160.64-282.48L160.64-282.48z"/>
</g>
<g>
	<path class="st1" d="M253.54-308.84c-1.49,3.44-3.77,6.17-6.84,8.19c-3.06,2.02-7.21,3.03-12.43,3.03c-2.99,0-5.73-0.54-8.24-1.63
		c-2.5-1.08-4.65-2.58-6.44-4.49c-1.79-1.91-3.19-4.17-4.2-6.79c-1.01-2.62-1.51-5.5-1.51-8.64v-30.74c0-1.27,0.37-2.28,1.11-3.03
		c0.74-0.75,1.77-1.12,3.1-1.12c1.33,0,2.36,0.38,3.1,1.12c0.74,0.75,1.11,1.76,1.11,3.03v30.07c0,4.71,1.2,8.4,3.6,11.05
		c2.4,2.66,5.75,3.98,10.03,3.98c4.28,0,7.59-1.33,9.91-3.98c2.33-2.65,3.49-6.34,3.49-11.05v-30.07c0-1.27,0.37-2.28,1.11-3.03
		c0.74-0.75,1.77-1.12,3.1-1.12c1.33,0,2.36,0.38,3.1,1.12c0.74,0.75,1.11,1.76,1.11,3.03v30.07c0,4.71,1.14,8.4,3.44,11.05
		c2.29,2.66,5.58,3.98,9.86,3.98c4.28,0,7.64-1.33,10.08-3.98c2.44-2.65,3.66-6.34,3.66-11.05v-30.07c0-1.27,0.37-2.28,1.11-3.03
		c0.74-0.75,1.77-1.12,3.1-1.12c1.33,0,2.36,0.38,3.1,1.12c0.74,0.75,1.11,1.76,1.11,3.03v30.74c0,3.14-0.51,6.02-1.51,8.64
		c-1.01,2.62-2.43,4.88-4.26,6.79c-1.83,1.91-4,3.41-6.5,4.49c-2.5,1.08-5.25,1.63-8.23,1.63c-5.16,0-9.3-1.03-12.44-3.09
		C257.13-302.76,254.89-305.47,253.54-308.84z"/>
</g>
<g>
	<path class="st1" d="M109.56-345.76c1.19-2.84,3.3-5.27,6.32-7.29s6.69-3.03,11.02-3.03c2.98,0,5.72,0.54,8.22,1.63
		c2.5,1.09,4.66,2.58,6.49,4.49c1.83,1.91,3.26,4.17,4.31,6.79c1.04,2.62,1.57,5.5,1.57,8.64v30.74c0,1.27-0.37,2.28-1.11,3.03
		c-0.74,0.75-1.77,1.12-3.1,1.12c-1.33,0-2.36-0.37-3.1-1.12c-0.74-0.75-1.11-1.76-1.11-3.03v-30.07c0-4.34-1.11-7.93-3.32-10.77
		c-2.22-2.84-5.46-4.26-9.74-4.26c-4.28,0-7.68,1.31-10.2,3.93c-2.52,2.62-3.77,6.32-3.77,11.11v30.07c0,1.27-0.37,2.28-1.11,3.03
		c-0.74,0.75-1.77,1.12-3.1,1.12c-1.33,0-2.36-0.37-3.1-1.12c-0.74-0.75-1.11-1.76-1.11-3.03v-30.07c0-4.34-1.15-7.93-3.44-10.77
		c-2.29-2.84-5.58-4.26-9.86-4.26c-4.21,0-7.55,1.37-10.03,4.1c-2.48,2.73-3.72,6.19-3.72,10.38v30.63c0,1.27-0.37,2.28-1.11,3.03
		c-0.74,0.75-1.77,1.12-3.1,1.12c-1.33,0-2.36-0.37-3.1-1.12c-0.74-0.75-1.11-1.76-1.11-3.03v-46.68c0-1.27,0.35-2.34,1.05-3.2
		c0.7-0.86,1.75-1.29,3.16-1.29s2.45,0.43,3.16,1.29c0.7,0.86,1.05,1.93,1.05,3.2l0.11,3.59c0.45-1.27,1.2-2.47,2.24-3.59
		c1.05-1.12,2.26-2.09,3.65-2.92c1.38-0.82,2.9-1.48,4.54-1.96c1.64-0.49,3.29-0.73,4.94-0.73c1.87,0,3.74,0.24,5.61,0.73
		c1.87,0.49,3.59,1.18,5.16,2.08c1.57,0.9,2.95,1.98,4.15,3.25C108.17-348.76,109.03-347.34,109.56-345.76z M147.48-334.54v30.74
		c0,1.27-0.37,2.28-1.11,3.03c-0.74,0.75-1.77,1.12-3.1,1.12c-1.33,0-2.36-0.37-3.1-1.12c-0.74-0.75-1.11-1.76-1.11-3.03v-30.07"/>
</g>
<g>
	<g>
		<path class="st1" d="M313.83-200.13c0.49-1.76,2.32-2.81,4.08-2.3c0.57,0.16,1.12,0.3,1.64,0.42c1.19,0.31,2.34,0.47,3.47,0.47
			c7.19,0,12.41-1.66,15.66-4.97c3.06-3.06,4.6-7.91,4.6-14.54v-11.26c0-3.39-4.49-4.59-6.18-1.65l-7.61,13.19
			c-1.63,2.56-3.13,4.35-4.5,5.35c-1.75,1.25-3.91,1.88-6.47,1.88c-2.88,0-5.16-0.72-6.85-2.16c-1.75-1.5-2.63-3.66-2.63-6.47
			v-48.42c0-1.83,1.48-3.31,3.31-3.31h0.13c1.83,0,3.31,1.48,3.31,3.31v48.51c0,0.88,0.22,1.53,0.66,1.97
			c0.5,0.44,1.34,0.66,2.53,0.66c0.69,0,1.31-0.25,1.88-0.75c0.42-0.48,1-1.26,1.71-2.34c0.04-0.07,0.09-0.14,0.13-0.21l20.13-35.04
			c0.29-0.51,0.71-0.93,1.22-1.22l1.11-0.64c2.21-1.27,4.96,0.32,4.96,2.87v36.85c0,7.38-2.06,13.13-6.19,17.26
			c-4.69,4.69-11.75,7.03-21.19,7.03c-2.38,0-4.31-0.09-5.81-0.28c-0.12-0.01-0.24-0.03-0.36-0.05
			C314.58-196.23,313.29-198.2,313.83-200.13L313.83-200.13z"/>
	</g>
	<g>
		<path class="st1" d="M218.18-201.88c0.53-0.52,1.28-0.84,2.26-0.94c0.91-0.16,1.77-0.08,2.6,0.24c0.83,0.31,1.4,0.84,1.7,1.57
			l13.9,26.75c3.34,8.21,13.41,8.01,16.52-0.32l9.58-25.72c0.68-1.73,2.38-2.59,5.09-2.59c2.79,0,4.53,0.86,5.2,2.59l9.56,25.64
			c3.11,8.35,13.2,8.53,16.53,0.3l10.69-26.41c0.23-0.84,0.83-1.44,1.81-1.81c0.75-0.31,1.62-0.39,2.6-0.24
			c0.98,0.16,1.73,0.5,2.26,1.02c0.53,0.63,0.68,1.36,0.45,2.2l-21.72,54.37c-0.68,1.89-2.15,2.83-4.41,2.83
			c-2.19,0-3.62-0.94-4.3-2.83l-17.78-46.98c-0.27-0.71-1.28-0.71-1.54,0l-17.67,47.06c-0.91,1.83-2.45,2.75-4.64,2.75
			c-2.19-0.05-3.62-0.97-4.3-2.75l-24.72-54.45C217.54-200.49,217.66-201.25,218.18-201.88z"/>
	</g>
	<g>
		<path class="st1" d="M303.88-215.79c-0.45,0.53-1.09,0.85-1.92,0.95c-0.77,0.16-1.51,0.08-2.21-0.24
			c-0.71-0.32-1.19-0.85-1.44-1.59l-9.26-27.03c-2.84-8.29-11.4-8.09-14.04,0.33l-8.15,25.99c-0.58,1.75-2.02,2.62-4.33,2.62
			c-2.37,0-3.85-0.87-4.43-2.62l-8.12-25.91c-2.64-8.43-11.22-8.62-14.05-0.3l-12.09,26.69c-0.19,0.85-0.71,1.45-1.54,1.83
			c-0.64,0.32-1.38,0.4-2.21,0.24c-0.83-0.16-1.47-0.5-1.92-1.03c-0.45-0.64-0.58-1.38-0.39-2.22l21.47-54.94
			c0.58-1.91,1.83-2.86,3.75-2.86c1.86,0,3.08,0.95,3.66,2.86l12.32,38.68c1.07,3.36,5.83,3.36,6.89-0.01l12.25-38.75
			c0.77-1.85,2.08-2.78,3.94-2.78c1.86,0.05,3.08,0.98,3.66,2.78l18.47,55.02C304.43-217.2,304.33-216.43,303.88-215.79z"/>
	</g>
	<path class="st1" d="M301.75-216.92c0.41,1.23,1.89,1.95,2.35,0.74c2.63-6.89,4.33-16.72,5.33-24.14c0.67-5,1.09-10.09,1.24-15.19
		c0.14-4.62-0.39-9.38-0.25-13.97c0.02-0.67,0.1-1.66-0.55-1.79l-0.46,0.9c0.61,16.65-4.26,33.26-9.02,48.23
		c-0.09,0.27-0.08,0.56,0,0.83C300.84-219.92,301.27-218.37,301.75-216.92z"/>
</g>
<g>
	<g>
		<g>
			<path class="st2" d="M76.75,25.1c2.74-6.31,6.91-11.31,12.52-15.01c5.61-3.7,13.21-5.55,22.78-5.55c5.48,0,10.51,1,15.09,2.98
				c4.59,1.98,8.52,4.73,11.81,8.22c3.28,3.5,5.85,7.64,7.7,12.44c1.85,4.8,2.77,10.07,2.77,15.83v30.68c0,2.33-0.67,4.18-2.03,5.55
				c-1.35,1.37-3.25,2.06-5.68,2.06c-2.44,0-4.33-0.69-5.68-2.06c-1.35-1.37-2.03-3.22-2.03-5.55V45.24c0-8.63-2.2-15.39-6.6-20.25
				c-4.4-4.87-10.53-7.3-18.37-7.3c-7.84,0-13.9,2.43-18.17,7.3c-4.27,4.86-6.4,11.62-6.4,20.25v67.92c0,2.33-0.67,4.18-2.03,5.55
				c-1.35,1.37-3.25,2.06-5.68,2.06c-2.44,0-4.33-0.69-5.68-2.06c-1.35-1.37-2.03-3.22-2.03-5.55V45.24c0-8.63-2.1-15.39-6.3-20.25
				c-4.2-4.87-10.22-7.3-18.06-7.3c-7.85,0-14,2.43-18.48,7.3c-4.47,4.86-6.71,11.62-6.71,20.25v67.92c0,2.33-0.67,4.18-2.03,5.55
				c-1.35,1.37-3.25,2.06-5.68,2.06s-4.33-0.69-5.68-2.06c-1.35-1.37-2.03-3.22-2.03-5.55V44.01c0-5.76,0.93-11.03,2.77-15.83
				c1.85-4.8,4.45-8.94,7.8-12.44c3.35-3.5,7.32-6.24,11.91-8.22c4.59-1.99,9.61-2.98,15.09-2.98c9.45,0,17.04,1.89,22.79,5.65
				C70.18,13.96,74.29,18.93,76.75,25.1z"/>
		</g>
		<g>
			<path class="st2" d="M206.72,100.22c-2.74,6.31-6.91,11.31-12.52,15.01c-5.61,3.7-13.21,5.55-22.78,5.55
				c-5.48,0-10.51-1-15.09-2.98c-4.59-1.98-8.52-4.73-11.81-8.22c-3.28-3.5-5.85-7.64-7.7-12.44c-1.85-4.8-2.77-10.07-2.77-15.83
				V54.29c0-2.33,0.67-4.18,2.03-5.55c1.35-1.37,3.25-2.06,5.68-2.06c2.44,0,4.33,0.69,5.68,2.06c1.35,1.37,2.03,3.22,2.03,5.55
				v25.78c0,8.63,2.2,15.39,6.6,20.25c4.4,4.87,10.53,7.3,18.37,7.3c7.84,0,13.9-2.43,18.17-7.3c4.27-4.86,6.4-11.62,6.4-20.25
				V12.14c0-2.33,0.67-4.18,2.03-5.55c1.35-1.37,3.25-2.06,5.68-2.06c2.44,0,4.33,0.69,5.68,2.06c1.35,1.37,2.03,3.22,2.03,5.55
				v67.92c0,8.63,2.1,15.39,6.3,20.25c4.2,4.87,10.22,7.3,18.06,7.3c7.85,0,14-2.43,18.48-7.3c4.47-4.86,6.71-11.62,6.71-20.25
				V12.14c0-2.33,0.67-4.18,2.03-5.55c1.35-1.37,3.25-2.06,5.68-2.06s4.33,0.69,5.68,2.06c1.35,1.37,2.03,3.22,2.03,5.55V81.3
				c0,5.76-0.93,11.03-2.77,15.83c-1.85,4.8-4.45,8.94-7.8,12.44c-3.35,3.5-7.32,6.24-11.91,8.22c-4.59,1.99-9.61,2.98-15.09,2.98
				c-9.45,0-17.04-1.89-22.79-5.65C213.28,111.35,209.18,106.38,206.72,100.22z"/>
		</g>
	</g>
	<path class="st2" d="M127.66,120.77h-7.22c-2.26,0-4.1-1.84-4.1-4.1v-7.22c0-2.26,1.84-4.1,4.1-4.1h7.22c2.26,0,4.1,1.84,4.1,4.1
		v7.22C131.76,118.94,129.93,120.77,127.66,120.77z"/>
</g>
<g>
	<g>
		<path class="st1" d="M394.17-179.16c1.49-3.44,3.77-6.17,6.84-8.19c3.06-2.02,7.21-3.03,12.43-3.03c2.99,0,5.73,0.54,8.24,1.63
			c2.5,1.08,4.65,2.58,6.44,4.49c1.79,1.91,3.19,4.17,4.2,6.79c1.01,2.62,1.51,5.5,1.51,8.64v13.74c0,1.27-0.37,2.28-1.11,3.03
			c-0.74,0.75-1.77,1.12-3.1,1.12c-1.33,0-2.36-0.38-3.1-1.12c-0.74-0.75-1.11-1.76-1.11-3.03v-13.07c0-4.71-1.2-8.4-3.6-11.05
			c-2.4-2.66-5.75-3.98-10.03-3.98c-4.28,0-7.59,1.33-9.91,3.98c-2.33,2.65-3.49,6.34-3.49,11.05v48.07c0,1.27-0.37,2.28-1.11,3.03
			c-0.74,0.75-1.77,1.12-3.1,1.12c-1.33,0-2.36-0.38-3.1-1.12c-0.74-0.75-1.11-1.76-1.11-3.03v-48.07c0-4.71-1.14-8.4-3.44-11.05
			c-2.29-2.66-5.58-3.98-9.86-3.98c-4.28,0-7.64,1.33-10.08,3.98c-2.44,2.65-3.66,6.34-3.66,11.05v48.07c0,1.27-0.37,2.28-1.11,3.03
			c-0.74,0.75-1.77,1.12-3.1,1.12c-1.33,0-2.36-0.38-3.1-1.12c-0.74-0.75-1.11-1.76-1.11-3.03v-48.74c0-3.14,0.51-6.02,1.51-8.64
			c1.01-2.62,2.43-4.88,4.26-6.79c1.83-1.91,4-3.41,6.5-4.49c2.5-1.08,5.25-1.63,8.23-1.63c5.16,0,9.3,1.03,12.44,3.09
			C390.58-185.23,392.82-182.52,394.17-179.16z"/>
	</g>
	<circle class="st1" cx="445.89" cy="-115.68" r="5.72"/>
	<path class="st1" d="M504.73-185.57c0-1.27-0.37-2.28-1.11-3.03c-0.74-0.75-1.77-1.12-3.1-1.12s-2.36,0.38-3.1,1.12
		c-0.74,0.75-1.11,1.76-1.11,3.03v17.87c0,0.01,0,0.02,0,0.03v30.07c0,0.91-0.06,1.78-0.15,2.61c-0.38,3.5-1.54,6.33-3.51,8.48
		c-1.83,1.99-4.18,3.24-7.04,3.73c-0.08,0.01-0.16,0.02-0.24,0.03c-0.3,0.04-0.6,0.09-0.91,0.12c-0.5,0.04-1.02,0.06-1.55,0.06
		c-4.28,0-7.62-1.33-10.03-3.98c-2.4-2.65-3.6-6.34-3.6-11.05v-30.07c0-1.27-0.37-2.28-1.11-3.03c-0.74-0.75-1.77-1.12-3.1-1.12
		c-1.33,0-2.36,0.38-3.1,1.12c-0.74,0.75-1.11,1.76-1.11,3.03v30.74c0,3.14,0.5,6.02,1.51,8.64c1.01,2.62,2.41,4.88,4.2,6.79
		c1.79,1.91,3.94,3.4,6.44,4.49c2.5,1.08,5.25,1.63,8.24,1.63c0.31,0,0.6-0.02,0.9-0.02c0.67,0.04,1.36,0.06,2.08,0.06
		c2.99,0,5.73-0.54,8.23-1.63c2.5-1.08,4.67-2.58,6.5-4.49c0.94-0.98,1.76-2.05,2.48-3.21c0.69-1.11,1.28-2.3,1.77-3.58
		c1-2.6,1.5-5.46,1.51-8.58v-0.06v-0.61L504.73-185.57z"/>
	<path class="st1" d="M469.3-162.28c0,0,0-13.95,0-13.95c0-1.27-0.37-2.28-1.11-3.03c-0.74-0.75-1.77-1.12-3.1-1.12
		c-1.33,0-2.36,0.38-3.1,1.12c-0.74,0.75-1.11,1.76-1.11,3.03l0,20.07c0,4.71-1.17,8.4-3.49,11.05c-2.33,2.66-5.63,3.98-9.91,3.98
		c-4.28,0-7.62-1.33-10.03-3.98c-2.4-2.65-3.6-6.34-3.6-11.05v-12.07c0-1.27-0.37-2.28-1.11-3.03c-0.74-0.75-1.77-1.12-3.1-1.12
		c-1.33,0-2.36,0.38-3.1,1.12c-0.74,0.75-1.11,1.76-1.11,3.03v12.74c0,3.14,0.5,6.02,1.51,8.64c1.01,2.62,2.41,4.88,4.2,6.79
		c1.79,1.91,3.94,3.41,6.44,4.49c2.5,1.08,5.25,1.63,8.24,1.63c5.23,0,9.37-1.01,12.43-3.03s5.34-4.75,6.84-8.19L469.3-162.28z"/>
</g>
</svg>
