<svg width="25" height="25" viewBox="0 0 25 25" fill="none" xmlns="http://www.w3.org/2000/svg">
<path d="M14.6729 8.83227L13.3605 6.52043C12.9775 5.84588 12.017 5.84265 11.6296 6.51461L10.231 8.94069C9.94277 9.44073 9.45669 9.79193 8.8957 9.90546L7.17199 10.2543C6.4018 10.4102 6.10169 11.3625 6.64051 11.9407L7.87468 13.2653C8.3346 13.7589 8.51952 14.4528 8.36718 15.1135L7.78253 17.649C7.58241 18.5168 8.50851 19.2038 9.26618 18.7494L11.4804 17.4217C12.1091 17.0447 12.8909 17.0447 13.5196 17.4217L15.7338 18.7494C16.4915 19.2038 17.4176 18.5168 17.2175 17.649L16.6243 15.0765C16.4767 14.4363 16.6455 13.7635 17.0772 13.2721L18.3417 11.8325C18.8548 11.2484 18.5478 10.3213 17.7904 10.168L16.0149 9.80867C15.4494 9.69422 14.9602 9.3383 14.6729 8.83227Z" stroke="#555555" stroke-width="2"/>
<path d="M23.5 12.8751C23.5 19.0225 18.5751 24.006 12.5 24.006C6.42487 24.006 1.5 19.0225 1.5 12.8751C1.5 6.72764 6.42487 1.74414 12.5 1.74414C18.5751 1.74414 23.5 6.72764 23.5 12.8751Z" stroke="#555555" stroke-width="2"/>
</svg>
