<svg width="26" height="26" viewBox="0 0 26 26" fill="none" xmlns="http://www.w3.org/2000/svg">
<path d="M20.9247 20.9636C20.5116 20.1445 19.9663 19.376 19.289 18.6906C15.8157 15.176 10.1844 15.176 6.71117 18.6906C6.03382 19.376 5.48857 20.1445 5.07541 20.9636M1.54166 13.381C1.54166 6.9774 6.67174 1.78625 13 1.78625C19.3283 1.78626 24.4583 6.9774 24.4583 13.381C24.4583 19.7846 19.3283 24.9757 13 24.9757C6.67173 24.9757 1.54166 19.7846 1.54166 13.381ZM17.1667 11.2729C17.1667 13.6014 15.3012 15.4891 13 15.4891C10.6988 15.4891 8.83333 13.6014 8.83333 11.2729C8.83333 8.94428 10.6988 7.05659 13 7.05659C15.3012 7.05659 17.1667 8.94428 17.1667 11.2729Z" stroke="#555555" stroke-width="2"/>
</svg>
